# xmcd
#
# Track frame offsets:
#	150
#	17521
#	48277
#	66389
#	102262
#
# Disc length: 2643 seconds
#
# Revision: 1
# Processed by: cddbd v1.5.2PL0 Copyright (c) Steve Scherf et al.
# Submitted via: audiograbber 1.82.01
#
DISCID=390a5105
DTITLE=Wyclef Jean - Two Wrongs (Maxi)
DYEAR=2002
DGENRE=Pop
TTITLE0=Two wrongs (Album Version)
TTITLE1=Africa (Album Version)
TTITLE2=PJ's (Main)
TTITLE3=Ghetto Racine (PJ's Creole Mix)
TTITLE4=Daten-CD
EXTD=
EXTT0=
EXTT1=
EXTT2=
EXTT3=
EXTT4=
PLAYORDER=
